<svg xmlns="http://www.w3.org/2000/svg" version="1.1" xmlns:xlink="http://www.w3.org/1999/xlink" xmlns:svgjs="http://svgjs.dev/svgjs" width="100%" height="100%" viewBox="0 0 1000 600"><rect width="1000" height="600" x="0" y="0" fill="#262223"/><g><rect width="333.3333333333333" height="333.3333333333333" rx="13.333333333333334" ry="13.333333333333334" y="246.97124223154785" fill="#ddc6b6" transform="matrix(0.5561759427833999,0,0,0.5561759427833999,0,69.9445440759012)" x="224.7490234375"/><path d="M334.6299769367491 343.34027925670716L334.6299769367491 338.6378984466926L446.05854499177883 338.6378984466926L448.2014020697601 383.2212304302488L444.36211647171024 383.2212304302488Q436.4156881408628 360.06646922650594 426.02878369342545 351.7033742416066Q415.6418792459881 343.34027925670716 395.0764036781394 343.34027925670716L395.0764036781394 343.34027925670716L389.0644990982473 343.34027925670716L389.0644990982473 412.9831342911007L398.70735594916334 412.9831342911007Q409.0049746850181 412.9831342911007 415.85021257301406 405.4831345181661Q422.69545046101 397.9831347452313 425.2847360969041 384.91765895031733L425.2847360969041 384.91765895031733L428.4990217138761 384.91765895031733L428.4990217138761 448.34027607779285L424.83830753899133 448.34027607779285Q421.4156885949934 432.2688479929328 415.3144983035187 425.42361010493687Q409.2133080120441 418.5783722169409 398.70735594916334 418.5783722169409L398.70735594916334 418.5783722169409L389.0644990982473 418.5783722169409L389.0644990982473 483.93551309537185L415.6418792459881 483.93551309537185L415.6418792459881 488.6378939053864L334.6299769367491 488.6378939053864L334.6299769367491 483.93551309537185L347.27878607761113 483.93551309537185L347.27878607761113 343.34027925670716L334.6299769367491 343.34027925670716Z " fill="#262223" transform="matrix(0.5561759427833999,0,0,0.5561759427833999,0,69.9445440759012)"/><path d="M641.4156901309805 349.35018835507935L641.4156901309805 344.90782710135903L746.6827821178719 344.90782710135903L748.7071492714659 387.02591038030226L745.0801581212767 387.02591038030226Q737.5731299266986 365.1514986372997 727.7605724738607 357.25084349618953Q717.9480150210228 349.35018835507935 698.5197135886131 349.35018835507935L698.5197135886131 349.35018835507935L692.8402390743631 349.35018835507935L692.8402390743631 415.1421208468865L701.9498912655363 415.1421208468865Q711.6781000869745 415.1421208468865 718.144828494289 408.0568358093073Q724.6115569016033 400.97155077172806 727.0576672121961 388.62853437689756L727.0576672121961 388.62853437689756L730.0942179425872 388.62853437689756L730.0942179425872 448.5441788811886L726.6359240551974 448.5441788811886Q723.4025598515402 433.36142522923313 717.6387367058903 426.8946968219187Q711.8749135602407 420.4279684146044 701.9498912655363 420.4279684146044L701.9498912655363 420.4279684146044L692.8402390743631 420.4279684146044L692.8402390743631 482.1711665992234L717.9480150210228 482.1711665992234L717.9480150210228 486.6135278529437L641.4156901309805 486.6135278529437L641.4156901309805 482.1711665992234L653.3650795792787 482.1711665992234L653.3650795792787 349.35018835507935L641.4156901309805 349.35018835507935ZM796.4765908541926 439.0408997434831L796.4765908541926 439.0408997434831L802.3528788417087 439.0408997434831L802.3528788417087 423.46451914499545Q802.3528788417087 404.2330311858518 800.2441630567149 397.6538379366711Q798.1073310612545 391.07464468749043 792.0342296004723 391.07464468749043L792.0342296004723 391.07464468749043Q788.3791222398164 391.07464468749043 785.4550363512916 392.98654699921815Q782.5309504627668 394.89844931094586 782.5309504627668 398.24427835646935Q782.5309504627668 401.5901074019929 783.73994751283 405.0202850789162L783.73994751283 405.0202850789162L788.8008653968151 405.0202850789162Q790.4034893934105 409.29394906983697 790.4034893934105 415.25458568875285Q790.4034893934105 421.21522230766874 785.3425715094253 425.57323492998927Q780.2816536254401 429.93124755230986 772.6059281680626 429.93124755230986L772.6059281680626 429.93124755230986Q755.2019938892469 429.93124755230986 755.2019938892469 413.11775369329246L755.2019938892469 413.11775369329246Q755.2019938892469 388.23490743036535 797.4887744309897 388.23490743036535L797.4887744309897 388.23490743036535Q821.5843668008523 388.23490743036535 830.806483833892 396.4167246761414Q840.0004846564651 404.626658132384 840.0004846564651 426.5010698753866L840.0004846564651 426.5010698753866L840.0004846564651 467.5788533670662Q840.0004846564651 478.1224322920352 845.8767726439812 478.1224322920352L845.8767726439812 478.1224322920352Q852.7652442082943 478.1224322920352 853.9742412583574 457.2602041258297L853.9742412583574 457.2602041258297L857.0107919887486 457.4570175990958Q856.1954218852176 475.2826950349102 850.347250108168 481.9462369154907Q844.470962120652 488.6378950065378 831.1157621490244 488.6378950065378L831.1157621490244 488.6378950065378Q806.8233563058956 488.6378950065378 803.1682489452397 473.65195482784833L803.1682489452397 473.65195482784833Q800.5253251613807 481.35579649569246 795.2675938041294 484.98278764588184Q790.0098624468782 488.6378950065378 779.8880266789079 488.6378950065378L779.8880266789079 488.6378950065378Q749.9161463215291 488.6378950065378 749.9161463215291 464.14867569014285L749.9161463215291 464.14867569014285Q749.9161463215291 449.7812921417183 761.3594439814289 444.41109594260075Q772.8027416413287 439.0408997434831 796.4765908541926 439.0408997434831ZM788.3791222398164 463.9518622168768Q788.3791222398164 474.4673249313793 789.5037706584798 477.5038756617704Q790.6284190771431 480.5404263921615 793.749318438934 480.5404263921615Q796.8983340111914 480.5404263921615 799.6256064264501 475.36704366631Q802.3528788417087 470.2217771509251 802.3528788417087 461.1121249597518L802.3528788417087 461.1121249597518L802.3528788417087 442.27426394714035L800.9470683183795 442.27426394714035Q788.3791222398164 442.27426394714035 788.3791222398164 460.690381802753L788.3791222398164 460.690381802753L788.3791222398164 463.9518622168768ZM853.1588711548264 393.8862657341488L844.8645890671842 393.8862657341488L844.8645890671842 390.25927458395944L905.3987902017401 390.25927458395944L905.3987902017401 393.8862657341488L892.6340306499108 393.8862657341488L916.9264364930395 461.1121249597518L938.800848236042 393.8862657341488L925.2488347911485 393.8862657341488L925.2488347911485 390.25927458395944L952.5777913646684 390.25927458395944L952.5777913646684 393.8862657341488L943.6649526467612 393.8862657341488L913.6930722893824 486.6135278529437L890.6096634963167 486.6135278529437L853.1588711548264 393.8862657341488ZM984.3491091919086 376.28551798206706Q973.6087167936734 376.28551798206706 969.0538906980868 370.8309731515497Q964.4990646025002 365.34831211056576 964.4990646025002 357.25084349618953Q964.4990646025002 349.15337488181325 969.4756338550856 343.89564352456205Q974.4240868972043 338.6379121673108 984.5459226651747 338.6379121673108Q994.667758433145 338.6379121673108 999.9254897903962 343.3895517361635Q1005.2113373581141 348.14119130501626 1005.2113373581141 356.9415651810571Q1005.2113373581141 365.77005526756454 1000.1504194741289 371.0277866248158Q995.0895015901438 376.28551798206706 984.3491091919086 376.28551798206706ZM953.7867884147315 393.8862657341488L953.7867884147315 390.25927458395944L1003.3837836777861 390.25927458395944L1003.3837836777861 482.95842049228776L1014.7146164958195 482.95842049228776L1014.7146164958195 486.6135278529437L954.6021585182625 486.6135278529437L954.6021585182625 482.95842049228776L965.7361778630299 482.95842049228776L965.7361778630299 393.8862657341488L953.7867884147315 393.8862657341488ZM1075.4456311036415 391.86189858055474L1075.4456311036415 391.86189858055474Q1066.5327923857344 391.86189858055474 1062.6808715518123 401.5901074019929Q1058.8570669283567 411.31831622343105 1058.8570669283567 433.78316838623186L1058.8570669283567 433.78316838623186L1058.8570669283567 444.2986311007344Q1058.8570669283567 464.34548916340896 1063.2994281820772 473.0615144080501Q1067.7417894357973 481.74942344222467 1079.6911788840957 481.74942344222467Q1091.6405683323942 481.74942344222467 1098.7258533699733 473.65195482784833Q1105.8111384075528 465.5544862134721 1107.8355055611466 455.2358369722357L1107.8355055611466 455.2358369722357L1111.4906129218025 455.62946391876784Q1107.6386920878806 473.0615144080501 1097.3200428466441 480.73723986542757L1097.3200428466441 480.73723986542757Q1086.776463921675 488.6378950065378 1068.3603460660624 488.6378950065378L1068.3603460660624 488.6378950065378Q1044.8833103264647 488.6378950065378 1032.3153642479015 475.9856002965749Q1019.7755343798048 463.3333055866119 1019.7755343798048 438.9284349016168Q1019.7755343798048 414.55168042708823 1034.0585692968298 401.3932939287268Q1048.3134880033876 388.23490743036535 1073.8148908965798 388.23490743036535L1073.8148908965798 388.23490743036535Q1091.8373818056602 388.23490743036535 1101.368777153832 395.2077276260783Q1110.8720562915378 402.2086640322578 1110.8720562915378 412.7241267467603Q1110.8720562915378 423.23958946126277 1106.3172301959512 428.1036938719819Q1101.7624041003646 432.9677982827009 1093.7774003278546 432.9677982827009Q1085.764280344878 432.9677982827009 1080.900175934159 428.7222505022467Q1076.0641877339062 424.4767027217925 1076.0641877339062 416.1543044236835L1076.0641877339062 416.1543044236835Q1076.0641877339062 412.5273132734942 1077.0763713107035 408.87220591283824L1077.0763713107035 408.87220591283824L1083.739913191284 408.87220591283824Q1085.1738399250798 404.8234716056501 1085.1738399250798 401.5901074019929L1085.1738399250798 401.5901074019929Q1085.1738399250798 391.86189858055474 1075.4456311036415 391.86189858055474ZM1181.9217201405963 446.7447414113272L1181.9217201405963 446.7447414113272L1181.9217201405963 429.53762060577765Q1181.9217201405963 409.8843894896353 1179.8130043556023 400.8872021403283Q1177.6761723601421 391.86189858055474 1169.9723306922979 391.86189858055474L1169.9723306922979 391.86189858055474Q1165.5299694385776 391.86189858055474 1162.8026970233188 394.39235752254734Q1160.07542460806 396.92281646453995 1158.8383113475306 402.79910445205604L1158.8383113475306 402.79910445205604Q1157.0388738776692 411.9087566432293 1157.0388738776692 430.5498041825747L1157.0388738776692 430.5498041825747L1157.0388738776692 446.32299825432847Q1157.0388738776692 468.39422347059707 1158.332219559132 472.83658472431745Q1159.6536814510614 477.3070621885043 1161.0876081848573 480.1467994456293L1161.0876081848573 480.1467994456293Q1163.3087888117175 484.98278764588184 1169.7755172190318 484.98278764588184L1169.7755172190318 484.98278764588184Q1177.6761723601421 484.98278764588184 1180.0941664602683 475.8731354547085L1180.0941664602683 475.8731354547085Q1181.9217201405963 469.4064070473941 1181.9217201405963 446.7447414113272ZM1169.3818902724997 488.6378950065378Q1144.077300852574 488.6378950065378 1131.1157278274786 475.6763219814424Q1118.154154802383 462.7147489563471 1118.154154802383 438.5348079550846Q1118.154154802383 414.3548669538222 1132.0154465624091 401.2808290868605Q1145.904854532902 388.23490743036535 1170.984514269095 388.23490743036535Q1196.0922902157545 388.23490743036535 1208.435306610585 400.26864551006344Q1220.8064392158822 412.3304998002281 1220.8064392158822 437.0165325898891L1220.8064392158822 437.0165325898891Q1220.8064392158822 488.6378950065378 1169.3818902724997 488.6378950065378L1169.3818902724997 488.6378950065378ZM1226.8795406766644 393.8862657341488L1226.8795406766644 390.25927458395944L1275.661165836188 390.25927458395944L1275.661165836188 408.87220591283824Q1278.8945300398454 399.56574024839887 1285.5861881308924 393.8862657341488Q1292.2497300114728 388.23490743036535 1305.8298596668328 388.23490743036535L1305.8298596668328 388.23490743036535Q1337.207550547541 388.23490743036535 1337.207550547541 422.0305924111997L1337.207550547541 422.0305924111997L1337.207550547541 482.95842049228776L1348.5383833655742 482.95842049228776L1348.5383833655742 486.6135278529437L1291.2375464346756 486.6135278529437L1291.2375464346756 482.95842049228776L1299.531828522318 482.95842049228776L1299.531828522318 417.16648800048057Q1299.531828522318 405.0202850789162 1297.9292045257225 401.4776425601266Q1296.298464318661 397.93500004133693 1292.0529165382068 397.93500004133693L1292.0529165382068 397.93500004133693Q1285.5861881308924 397.93500004133693 1280.6096188783067 406.454211812712Q1275.661165836188 414.94530737362044 1275.661165836188 427.09151029518483L1275.661165836188 427.09151029518483L1275.661165836188 482.95842049228776L1284.3490748703625 482.95842049228776L1284.3490748703625 486.6135278529437L1226.8795406766644 486.6135278529437L1226.8795406766644 482.95842049228776L1238.0135600214317 482.95842049228776L1238.0135600214317 393.8862657341488L1226.8795406766644 393.8862657341488ZM1375.7548750972278 488.6378950065378Q1366.954501221187 488.6378950065378 1362.5964885988665 483.4645122806863Q1358.238475976546 478.31924576530133 1358.238475976546 470.9246824125897Q1358.238475976546 463.530119059878 1362.7933020721325 458.46920117589286Q1367.348128167719 453.4082832919077 1375.670526465828 453.4082832919077Q1383.9648085534704 453.4082832919077 1388.8289129641894 457.6538310723619Q1393.6649011644422 461.9274950632827 1393.6649011644422 470.41859062419115Q1393.6649011644422 478.9096861850996 1389.1100750688556 483.7737905958187Q1384.555248973269 488.6378950065378 1375.7548750972278 488.6378950065378ZM1434.573987393322 376.28551798206706Q1423.833594995087 376.28551798206706 1419.2787688995004 370.8309731515497Q1414.7239428039138 365.34831211056576 1414.7239428039138 357.25084349618953Q1414.7239428039138 349.15337488181325 1419.700512056499 343.89564352456205Q1424.6489650986182 338.6379121673108 1434.7708008665882 338.6379121673108Q1444.8926366345586 338.6379121673108 1450.1503679918096 343.3895517361635Q1455.408099349061 348.14119130501626 1455.408099349061 356.9415651810571Q1455.408099349061 365.77005526756454 1450.3471814650761 371.0277866248158Q1445.2862635810907 376.28551798206706 1434.573987393322 376.28551798206706ZM1404.0116666161452 393.8862657341488L1404.0116666161452 390.25927458395944L1453.6086618791996 390.25927458395944L1453.6086618791996 482.95842049228776L1464.9394946972334 482.95842049228776L1464.9394946972334 486.6135278529437L1404.7989205092094 486.6135278529437L1404.7989205092094 482.95842049228776L1415.9329398539771 482.95842049228776L1415.9329398539771 393.8862657341488L1404.0116666161452 393.8862657341488ZM1534.35841833923 446.7447414113272L1534.35841833923 446.7447414113272L1534.35841833923 429.53762060577765Q1534.35841833923 409.8843894896353 1532.2497025542361 400.8872021403283Q1530.1128705587753 391.86189858055474 1522.437145101398 391.86189858055474L1522.437145101398 391.86189858055474Q1517.9666676372112 391.86189858055474 1515.2393952219527 394.39235752254734Q1512.5121228066937 396.92281646453995 1511.3031257566308 402.79910445205604L1511.3031257566308 402.79910445205604Q1509.4755720763028 411.9087566432293 1509.4755720763028 430.5498041825747L1509.4755720763028 430.5498041825747L1509.4755720763028 446.32299825432847Q1509.4755720763028 468.39422347059707 1510.797033968232 472.83658472431745Q1512.090379649695 477.3070621885043 1513.524306383491 480.1467994456293L1513.524306383491 480.1467994456293Q1515.745487010351 484.98278764588184 1522.2122154176654 484.98278764588184L1522.2122154176654 484.98278764588184Q1530.1128705587753 484.98278764588184 1532.5589808693685 475.8731354547085L1532.5589808693685 475.8731354547085Q1534.35841833923 469.4064070473941 1534.35841833923 446.7447414113272ZM1521.8185884711334 488.6378950065378Q1496.5139990512075 488.6378950065378 1483.5524260261118 475.6763219814424Q1470.590853001017 462.7147489563471 1470.590853001017 438.5348079550846Q1470.590853001017 414.3548669538222 1484.4802609715093 401.2808290868605Q1498.3415527315356 388.23490743036535 1523.449328678195 388.23490743036535Q1548.528988414388 388.23490743036535 1560.9001210196852 400.26864551006344Q1573.2431374145158 412.3304998002281 1573.2431374145158 437.0165325898891L1573.2431374145158 437.0165325898891Q1573.2431374145158 488.6378950065378 1521.8185884711334 488.6378950065378L1521.8185884711334 488.6378950065378Z " fill="#ddc6b6" transform="matrix(0.5561759427833999,0,0,0.5561759427833999,0,69.9445440759012)"/></g></svg>